<?xml version="1.0" encoding="utf-8"?>
<!-- Generator: Adobe Illustrator 24.3.0, SVG Export Plug-In . SVG Version: 6.00 Build 0)  -->
<svg version="1.1" id="Layer_1" xmlns="http://www.w3.org/2000/svg" xmlns:xlink="http://www.w3.org/1999/xlink" x="0px" y="0px"
	 viewBox="0 0 2303 4096" style="enable-background:new 0 0 2303 4096;" xml:space="preserve">
<style type="text/css">
	.st0{fill:#FFFFFF;}
</style>
<path id="_x31_" class="st0" d="M1612.1,2383.6l3.5-3.6l-7.3-4.2l-5.5-2.4l-10.4-3l-6.1-4.8l-4.9,0.6l-9.2-0.6l-10.4,1.8l-8,3
	l-14.1,5.4c0,0,1.8-3.6-5.5,4.2c-5.8,6.2-6.6,7-6.7,7.2l-8,6.6l-14.7,2.4l0.6-7.8l0.6-14.3c0,0,9.2-4.8-0.6-10.8l-9.8-6h-12.2
	l-10.4-1.2v27.9l-15.3-8.2l-11-8.4l-17.1-3l-10.4-7.2l-9.8,1.2l-16.5,4.2l-5.5,3l17.1,10.2l8.6,6l3.7,3l-747.3-2.4l39.2-14.3
	l-2.2-197.2l52.8-0.7l-15.3-3l782.8,1.2l86.5,3.2l1.9,196.5l38.6,15.5H1612.1z"/>
<path id="_x32_" class="st0" d="M1526.6,2168.3l-782.8-1.2l15.3,3l-52.8,0.8l4.4-203.5h64l-28.2-17.8l785.8,2.4l-17.7,11.9h98.5
	v207.6L1526.6,2168.3z"/>
<path id="_x33_" class="st0" d="M1514.6,1963.9l17.7-11.9l-785.8-2.4l28.2,17.8h-64l1.2-207.1h53.6l-19.6-17.3h786.4l-16.5,17.3
	l96.3-2.3l1,205.9H1514.6z"/>
<path id="_x34_" class="st0" d="M1667,1517.9l-0.6,4.8l-1.2,1.2l-1.8,3l-2.4,3l-1.8,3.6l-47.7,75.3l0.8,149.3l-96.3,2.3l16.5-17.3
	H745.9l19.6,17.3h-53.6l0.9-149.2l-48.3-73.5l-3.7-6l-0.6-3l-3.7-3.6v-2.8l-1.8-3.8l103.4,0.6l0.6-17.9l-32.4-60.9l836.9-2.1
	c0,0,2.4,0.9,0,3.4c-2.4,2.5-3.1,3.2-3.1,3.2l-2.4,5.4l-27.8,55.9v11.9H1667z"/>
</svg>
